<?xml version="1.0" encoding="UTF-8" standalone="no"?>
<!-- Created with Inkscape (http://www.inkscape.org/) -->

<svg
   width="135.46817mm"
   height="135.46712mm"
   viewBox="0 0 135.46817 135.46712"
   version="1.1"
   id="svg5"
   xml:space="preserve"
   xmlns:xlink="http://www.w3.org/1999/xlink"
   xmlns="http://www.w3.org/2000/svg"
   xmlns:svg="http://www.w3.org/2000/svg"><defs
     id="defs2"><linearGradient
       id="linearGradient1797"><stop
         style="stop-color:#800080;stop-opacity:1;"
         offset="0"
         id="stop1793" /><stop
         style="stop-color:#000000;stop-opacity:0.96561956;"
         offset="1"
         id="stop1795" /></linearGradient><radialGradient
       xlink:href="#linearGradient1797"
       id="radialGradient1799"
       cx="274.24908"
       cy="713.1322"
       fx="274.24908"
       fy="713.1322"
       r="37.466187"
       gradientTransform="matrix(1.807873,0,0,1.8078606,-191.29212,-545.80525)"
       gradientUnits="userSpaceOnUse" /></defs><g
     id="layer1"
     transform="translate(-236.78119,-675.70486)"><path
       style="mix-blend-mode:color-burn;fill:url(#radialGradient1799);fill-opacity:1;stroke:#000000;stroke-width:0.27048"
       d="m 300.05794,810.96274 c -0.44606,-0.0625 -1.96673,-0.24106 -3.37925,-0.39688 -8.13838,-0.89786 -17.09133,-3.69341 -24.85336,-7.76048 -2.84102,-1.48861 -7.91416,-4.87056 -10.71044,-7.14002 -7.89814,-6.41011 -15.31595,-16.23501 -19.18426,-25.40956 -1.88977,-4.48201 -3.82785,-11.18382 -4.60303,-15.917 -0.53847,-3.28795 -0.53984,-18.99391 -0.002,-22.27809 1.02086,-6.23287 2.88107,-11.90326 5.98032,-18.22939 3.62627,-7.40191 7.07883,-12.26807 12.67704,-17.86749 8.45828,-8.46007 18.71574,-14.44387 30.28755,-17.66852 4.04399,-1.12692 7.90138,-1.94833 9.13996,-1.94628 0.41767,8.5e-4 0.69106,-0.10939 0.60752,-0.24474 -0.0901,-0.14597 3.56397,-0.24148 8.97287,-0.23487 5.01864,0.005 8.699,0.10087 8.17858,0.2104 l -0.94619,0.19923 1.12004,0.0357 c 3.24779,0.10341 11.76074,2.30056 16.58731,4.28127 13.7183,5.62971 25.2334,15.43884 33.07402,28.17405 4.33558,7.04215 7.17279,14.82542 8.70104,23.86949 0.5391,3.19038 0.54643,18.66101 0.0109,21.9203 -0.40208,2.4446 -0.86561,4.57314 -1.23764,5.68305 -0.12474,0.37209 -0.49673,1.5899 -0.82668,2.7062 -4.33377,14.66194 -14.38687,28.07218 -27.77089,37.0447 -7.67809,5.14732 -18.2107,9.08706 -28.03553,10.48671 -2.63621,0.37557 -12.16833,0.70901 -13.7874,0.48232 z m 13.24671,-3.75317 c 9.17856,-1.24742 17.90254,-4.41057 25.76744,-9.34279 2.4682,-1.54785 6.14345,-4.17824 6.80866,-4.87296 0.0743,-0.0777 1.31651,-1.2142 2.76036,-2.52564 6.7274,-6.11055 13.10023,-15.45995 16.35982,-24.00109 2.98225,-7.81445 4.2168,-14.38449 4.24601,-22.59684 0.0416,-11.6619 -2.42179,-21.38055 -7.99094,-31.52736 -2.62371,-4.7803 -6.30637,-9.5958 -10.77692,-14.09205 -3.93949,-3.96214 -6.66996,-6.19681 -11.01705,-9.01663 -5.45716,-3.53989 -13.05197,-6.90716 -18.04714,-8.00149 -0.59475,-0.1304 -2.48038,-0.54222 -4.19029,-0.91539 -8.56061,-1.86827 -19.67452,-1.62375 -28.26561,0.62191 -11.44573,2.99181 -20.81399,8.07464 -29.24754,15.86847 -6.05105,5.59204 -12.14727,14.47383 -15.21375,22.1654 -4.7706,11.96601 -5.92431,24.20735 -3.48144,36.93976 0.29983,1.56285 0.72294,3.45043 0.9402,4.19464 0.21725,0.74419 0.58827,2.02289 0.82448,2.84151 2.9364,10.17703 9.98013,20.95206 18.75342,28.68771 9.79249,8.63431 22.71923,14.29188 35.82018,15.67722 1.48687,0.1572 3.12919,0.3366 3.64959,0.39859 1.77161,0.21102 9.31725,-0.0976 12.30052,-0.50297 z m -15.1766,-3.60388 c -0.44177,-0.28534 -0.90543,-2.15042 -0.90718,-3.64924 -10e-4,-0.96153 -0.1036,-1.28546 -0.40703,-1.28546 -0.2934,0 -0.4055,0.30167 -0.4055,1.0912 0,1.1485 -0.55369,2.77697 -1.0482,3.08292 -0.49546,0.30653 -1.33187,-0.33965 -1.514,-1.16969 -0.11443,-0.52164 -0.38647,-0.84239 -0.80317,-0.94708 -0.75749,-0.19032 -0.96639,-0.64309 -1.19897,-2.59859 l -0.17699,-1.48841 -0.73823,1.53932 c -0.40603,0.84662 -0.73823,1.79841 -0.73823,2.1151 0,0.6942 -0.4635,1.6227 -0.81001,1.6227 -0.13776,0 -0.28545,-1.06558 -0.32843,-2.36794 -0.0624,-1.88967 -0.15999,-2.36794 -0.4836,-2.36794 -0.2676,0 -0.45712,0.36819 -0.55724,1.08249 -0.20317,1.44967 -0.96651,2.84151 -1.55837,2.84151 -0.61655,0 -1.12849,-0.51561 -1.12849,-1.1366 0,-0.26792 -0.18509,-0.48712 -0.41131,-0.48712 -0.71796,0 -1.04576,-1.18235 -0.74707,-2.69459 0.14825,-0.75061 0.18603,-1.36472 0.0839,-1.36472 -0.23573,0 -1.68356,2.02409 -2.2745,3.1798 -0.63791,1.24752 -1.51721,1.21306 -1.51721,-0.0596 v -0.93898 l -0.99272,0.67438 c -1.42448,0.96767 -3.73611,1.59162 -4.78652,1.29195 -0.65107,-0.18576 -0.8642,-0.4145 -0.93196,-1.00034 -0.0516,-0.44518 0.10449,-0.97235 0.37703,-1.27375 0.67231,-0.74365 3.08056,-2.24387 3.28061,-2.04365 0.0934,0.0936 0.11932,0.20564 0.0573,0.24905 -0.062,0.0435 -0.62672,0.40851 -1.25503,0.81137 -1.28064,0.82107 -2.1111,1.90408 -1.8207,2.37444 0.64772,1.04913 5.80168,-1.36722 5.80168,-2.72002 0,-0.48002 -1.3407,-1.8978 -1.79462,-1.8978 -0.15295,0 -0.78502,-0.46842 -1.4045,-1.04091 -1.26962,-1.17333 -1.43435,-2.0122 -0.60289,-3.07033 0.7063,-0.89884 3.4616,-2.33634 5.04608,-2.63268 2.96926,-0.55528 3.77044,1.23927 1.30751,2.92865 -1.3097,0.89833 -1.55584,0.43283 -0.32126,-0.60754 0.55758,-0.46986 1.01378,-0.94565 1.01378,-1.05726 -2e-5,-0.11174 -0.39539,-0.20115 -0.87863,-0.1989 -2.13157,0.009 -5.87991,2.11448 -5.87991,3.30143 0,0.11464 0.83448,0.76372 1.85441,1.44263 1.01996,0.67891 2.01674,1.53799 2.21512,1.90903 0.35781,0.66927 0.36656,0.66163 1.10266,-0.96161 0.40809,-0.89992 0.87494,-1.63624 1.03746,-1.63624 0.5313,0 0.61065,0.78031 0.19903,1.95715 -0.86575,2.47517 -0.83071,2.30501 -0.35427,1.72064 1.32224,-1.62174 1.80413,-2.0299 2.21165,-1.87336 0.37092,0.14235 0.40688,0.47731 0.24628,2.29335 -0.10341,1.16958 -0.13089,2.12649 -0.061,2.12649 0.07,0 0.3862,-0.71132 0.70287,-1.58075 0.60046,-1.64852 1.42084,-2.65808 1.91271,-2.35378 0.15801,0.0978 0.28736,0.39529 0.28736,0.66113 0,0.43735 0.77509,1.37908 1.13508,1.37908 0.0805,0 0.28982,-0.73031 0.46523,-1.62288 0.54709,-2.78363 1.38699,-4.28294 2.13872,-3.81786 0.26564,0.16426 0.18845,0.66815 -0.34699,2.26487 -0.80519,2.40112 -0.88807,3.1372 -0.29799,2.64698 0.21485,-0.17838 0.67105,-0.28474 1.01378,-0.2361 0.56442,0.0802 0.63588,0.26098 0.75831,1.91925 0.1865,2.52589 0.59415,2.50475 1.38393,-0.0719 0.28046,-0.91492 0.52447,-1.23931 0.98112,-1.30423 0.44606,-0.0634 0.67813,0.0987 0.87192,0.60889 0.27552,0.7254 0.78295,0.89294 1.25956,0.41583 0.15349,-0.15357 0.48203,-0.20158 0.72991,-0.10649 0.34447,0.13239 0.45072,0.52095 0.45072,1.64857 0,0.91472 0.10269,1.41188 0.27035,1.30818 0.14861,-0.092 0.27035,-0.3424 0.27035,-0.55648 0,-0.21408 0.37376,-1.18112 0.83057,-2.14899 0.58597,-1.24148 0.97938,-1.75977 1.33574,-1.75977 0.72601,0 0.90485,0.4433 0.86602,2.14672 -0.0284,1.24291 0.0186,1.41192 0.26836,0.96543 0.65461,-1.17048 1.54884,-0.96086 1.58444,0.3714 0.0109,0.39111 0.11751,0.95463 0.23772,1.25233 0.1298,0.32125 0.17138,-0.17368 0.10195,-1.21781 -0.12492,-1.88223 0.13451,-2.61554 0.83049,-2.3482 0.345,0.13238 0.43363,0.59347 0.43692,2.27205 0.005,2.67443 0.33831,3.32342 0.95154,1.85424 0.36759,-0.88069 0.38313,-1.16126 0.0942,-1.70168 -0.29469,-0.55116 -0.27007,-0.78817 0.16614,-1.59887 0.88441,-1.64397 2.83917,-2.64529 2.83917,-1.45437 0,0.29769 -0.12745,0.54125 -0.28325,0.54125 -0.31915,0 -1.60914,1.31768 -1.60914,1.64368 0,0.26292 3.02217,-0.009 3.34215,-0.30129 0.12962,-0.11808 0.0427,-1.33475 -0.1961,-2.73954 -0.47528,-2.79726 -0.37409,-3.74464 0.39991,-3.74464 0.39036,0 0.50915,0.1979 0.50915,0.8483 0,0.46657 0.14355,1.6284 0.31908,2.58182 l 0.31906,1.73349 0.56107,-0.70435 c 0.77395,-0.97164 1.25883,-0.68972 2.14764,1.24865 0.41127,0.89693 0.89095,1.58406 1.06593,1.52698 0.175,-0.0571 0.42981,-0.67315 0.56625,-1.36904 0.28116,-1.4341 0.69813,-1.68893 0.69813,-0.42669 0,1.14234 -0.76605,2.67946 -1.33539,2.67946 -0.61225,0 -1.5535,-1.02868 -1.9297,-2.10896 -0.16614,-0.47733 -0.39845,-0.86787 -0.51604,-0.86787 -0.4086,0 -0.55296,1.82739 -0.25444,3.22076 0.35629,1.66313 0.1855,2.42826 -0.42825,1.91839 -0.22129,-0.18383 -0.40231,-0.47028 -0.40231,-0.63655 0,-0.42716 -0.9154,-2.60603 -1.09537,-2.60724 -0.0821,-4.4e-4 -0.16108,0.41972 -0.17572,0.93393 -0.061,2.15379 -3.59513,4.94999 -3.59513,2.84445 0,-0.73279 0.43288,-1.56315 1.30014,-2.49395 0.76746,-0.8237 0.65071,-0.89825 -0.66229,-0.42298 -0.6606,0.23913 -0.93295,0.53311 -1.06555,1.15014 -0.25524,1.18794 -0.88084,2.31732 -1.28363,2.31732 -0.56909,0 -2.27258,-1.72505 -2.68892,-2.72297 l -0.38817,-0.9304 -0.44437,1.46988 c -0.2444,0.80843 -0.44437,1.63042 -0.44437,1.82668 0,0.53155 -1.02149,0.4316 -1.1934,-0.11681 -0.0818,-0.26047 -0.0537,-1.54724 0.062,-2.85951 0.1157,-1.31227 0.13052,-2.43542 0.0329,-2.49589 -0.0978,-0.0605 -0.37207,0.34342 -0.60964,0.89753 -0.40909,0.95409 -0.60673,1.62536 -1.27275,4.32257 -0.28816,1.16692 -0.4251,1.29918 -0.97651,0.94303 z m 11.15988,-1.35499 c 0.6892,-0.55646 1.56481,-2.20239 1.30586,-2.45472 -0.22337,-0.21764 -2.28869,2.124 -2.28972,2.59605 -0.001,0.45868 0.29308,0.41644 0.98386,-0.14125 z m -13.68804,-1.83206 c 0.25927,-1.1508 0.0715,-2.02872 -0.3064,-1.43207 -0.25489,0.40255 -0.32838,2.84308 -0.0781,2.59249 0.0873,-0.0875 0.26033,-0.60962 0.38444,-1.16042 z m -8.29575,-2.22121 c 0.0931,-0.48376 0.0702,-0.87953 -0.0514,-0.87953 -0.22655,0 -0.84707,1.80174 -0.84707,2.45954 0,0.62633 0.71594,-0.63277 0.89842,-1.58001 z m 31.74831,3.25919 c -0.0711,-0.41577 -0.2204,-0.96907 -0.33167,-1.22955 -0.14065,-0.32933 -0.0801,-0.47359 0.19901,-0.47359 0.61558,0 1.05684,0.69801 0.96016,1.51885 -0.11769,0.99945 -0.66709,1.12182 -0.8275,0.18429 z m 5.93832,-0.0109 c -1.69121,-1.87201 -4.99526,-11.70343 -4.42932,-13.17976 0.0978,-0.25517 0.32986,-0.41344 0.51564,-0.3517 0.36351,0.12098 0.52811,0.59439 1.01147,2.90957 0.38786,1.85795 2.09058,7.1667 2.64734,8.25395 0.61301,1.19711 0.71134,0.40528 0.2279,-1.835 -0.23188,-1.07454 -0.50324,-3.14105 -0.60302,-4.59224 l -0.1814,-2.63856 0.6453,0.002 c 0.52061,0.002 0.96811,0.51201 2.31585,2.63856 1.92363,3.03524 3.47468,4.93614 4.02769,4.93614 0.21144,0 0.38444,-0.0663 0.38444,-0.14706 0,-0.32254 -1.93728,-5.29332 -3.09568,-7.943 -0.67637,-1.54715 -1.22976,-2.92435 -1.22976,-3.06044 0,-0.63005 0.65624,0.28657 1.55882,2.17731 0.73027,1.52977 1.01388,1.91812 1.08319,1.48317 0.13378,-0.83967 0.77244,-1.30031 1.3939,-1.00532 0.27975,0.13293 1.0096,0.88082 1.6219,1.66223 1.30798,1.66923 2.05757,1.89903 1.76547,0.54123 -0.10412,-0.48373 -0.36016,-1.21442 -0.56909,-1.62372 -0.20896,-0.40931 -0.27001,-0.7442 -0.13577,-0.7442 0.41765,0 0.88139,0.7367 1.26327,2.00688 0.33276,1.1068 0.32078,1.27709 -0.12891,1.8329 -0.45342,0.56054 -0.55563,0.58057 -1.20012,0.23532 -0.90309,-0.48384 -1.05104,-0.31305 -0.67193,0.77556 0.25214,0.72404 0.23138,0.95395 -0.1177,1.30343 -0.38494,0.38535 -0.48628,0.38339 -1.10321,-0.0212 l -0.67933,-0.44558 0.39278,1.11438 c 0.48222,1.36817 0.50624,2.56896 0.0548,2.74086 -1.00327,0.38212 -2.76254,-1.27199 -5.09078,-4.78655 l -1.60015,-2.41544 v 1.49902 c 0,0.82444 0.12871,2.15494 0.28618,2.95668 0.58264,2.96765 0.99916,5.79357 0.88297,5.99061 -0.20674,0.35053 -0.798,0.22179 -1.24286,-0.27062 z m 6.74832,-10.00582 c -0.35783,-1.21315 -0.72711,-1.77188 -0.72711,-1.10013 0,0.5138 0.80145,2.47823 0.95029,2.32922 0.0592,-0.0592 -0.0412,-0.61232 -0.22318,-1.22909 z m -26.8826,3.52358 c -0.38195,-0.14162 -0.45908,-1.05591 -0.10739,-1.27348 0.12674,-0.0784 0.46133,0.0288 0.74343,0.23811 0.45485,0.3376 0.467,0.42491 0.10739,0.77076 -0.22302,0.21451 -0.55757,0.33359 -0.74343,0.26461 z m -3.04133,-4.55134 c -0.22304,-0.0431 -1.62205,-0.22534 -3.10892,-0.40501 -13.45037,-1.62541 -26.50871,-9.64185 -33.71538,-20.69766 -3.06653,-4.70439 -5.58481,-10.56336 -6.6882,-15.56071 -1.51258,-6.85053 -1.35653,-15.43132 0.39374,-21.64967 0.80949,-2.87596 0.81488,-3.3675 0.0407,-3.72061 -0.37984,-0.17313 -1.57859,-1.14616 -2.66388,-2.16203 -2.03929,-1.90885 -3.64871,-2.93983 -4.26709,-2.7335 -0.21068,0.0705 0.51478,0.87656 1.78013,1.97835 2.23352,1.94486 2.67399,2.68454 1.76967,2.97186 -1.09824,0.34894 -5.7166,-1.81707 -5.7166,-2.6811 0,-0.72877 0.46108,-0.669 2.27449,0.29494 2.03758,1.08307 2.5707,1.0423 1.22165,-0.0934 -1.21275,-1.02097 -2.68511,-2.5527 -2.68511,-2.79336 0,-0.48971 0.83979,-0.84016 1.60839,-0.67117 0.79699,0.17512 0.81494,0.15719 0.65313,-0.65262 -0.23126,-1.15755 0.21,-1.02897 0.78934,0.22998 0.38381,0.83409 0.8266,1.22051 2.16272,1.88746 0.92406,0.46125 2.3241,1.32787 3.11119,1.92582 l 1.43109,1.08716 0.41296,-1.01961 c 2.2028,-5.43881 5.4996,-10.62547 9.35302,-14.71455 1.91791,-2.03518 6.30372,-5.67558 8.83447,-7.33294 8.18388,-5.35958 19.27877,-8.0947 29.40898,-7.24994 21.31344,1.77731 37.73054,16.16881 42.64767,37.38569 0.22958,0.9906 0.56078,3.56642 0.736,5.72403 1.09974,13.54231 -3.46683,26.11058 -13.13169,36.14136 -7.92325,8.22323 -17.02468,12.70893 -28.89404,14.24064 -2.81925,0.36382 -6.59401,0.49548 -7.75844,0.27062 z m 4.86614,-4.32416 c 0,-0.22551 -0.24032,-0.40594 -0.54068,-0.40594 -0.3004,0 -0.5407,0.18038 -0.5407,0.40594 0,0.22552 0.2403,0.40593 0.5407,0.40593 0.30036,0 0.54068,-0.18037 0.54068,-0.40593 z m -11.72312,-0.88991 c 0.16615,-0.2662 0.3934,-1.02588 0.50518,-1.68816 0.12818,-0.75899 0.54876,-1.62626 1.13788,-2.34596 0.51406,-0.628 0.85626,-1.26878 0.76043,-1.42399 -0.0958,-0.1552 -0.80572,-0.27835 -1.57755,-0.27362 l -1.40333,0.009 0.74343,0.55526 c 0.85641,0.63961 0.95699,1.05132 0.25682,1.05132 -0.26763,0 -0.62169,0.13528 -0.7868,0.3005 -0.17699,0.17711 -1.41892,0.30961 -3.02781,0.32272 -1.50021,0.0127 -2.72765,0.0449 -2.72765,0.0726 0,0.0277 0.66914,0.51157 1.48697,1.07539 0.8178,0.56386 1.43749,1.07467 1.37703,1.13517 -0.0604,0.0605 -0.57065,-0.0181 -1.13381,-0.17295 -1.09931,-0.30387 -1.46972,-0.19933 -0.9912,0.27968 0.35746,0.35781 3.76857,1.53574 4.53521,1.56609 0.29879,0.0127 0.67914,-0.19629 0.8452,-0.46249 z m 9.29005,-0.34386 c 0,-0.55463 -0.65761,-0.7221 -0.95351,-0.2428 -0.21573,0.34943 0.38455,1.12007 0.7138,0.91637 0.13179,-0.0817 0.23971,-0.38466 0.23971,-0.67357 z m -2.21359,-1.40789 c 0.0619,-0.32116 -0.0823,-0.47048 -0.45405,-0.47048 -0.61997,0 -0.96333,0.40418 -0.70238,0.82685 0.26311,0.42617 1.05269,0.18286 1.15643,-0.35637 z m -14.54756,-2.0942 c 0,-1.90143 0.18584,-2.24249 0.81103,-1.48843 0.18511,0.22326 0.59537,0.39668 0.9117,0.38535 0.75389,-0.027 2.60927,-0.74393 1.99447,-0.77068 -0.80704,-0.0351 -0.52376,-0.4568 0.66801,-0.99433 1.4968,-0.67508 5.09073,-0.69663 6.32803,-0.0379 0.80072,0.42631 0.87018,0.42331 1.30366,-0.0561 0.25183,-0.27857 0.84445,-0.66147 1.31694,-0.85093 0.47249,-0.18947 1.25867,-0.68771 1.74709,-1.10723 0.95631,-0.8214 1.00173,-0.83413 1.81539,-0.50795 0.37809,0.15158 0.9065,0.0127 1.75722,-0.46456 2.10691,-1.18001 2.96999,-1.8087 2.97189,-2.16485 0.001,-0.18974 0.30598,-0.46074 0.6777,-0.60219 0.74834,-0.28482 0.87613,-1.05142 0.39178,-2.35032 -0.42522,-1.14044 -4.92689,-9.01578 -5.15353,-9.01578 -0.20654,0 -2.85576,3.55097 -4.80482,6.44033 -3.33835,4.94886 -7.15,6.76424 -10.70899,5.10042 -3.18134,-1.48727 -4.89032,-3.8267 -8.50074,-11.6367 l -1.35792,-2.93748 -1.23901,0.72686 c -1.59823,0.9376 -2.01388,0.7731 -2.01388,-0.79707 v -1.22629 h -1.48687 c -0.8178,0 -1.48688,-0.10703 -1.48688,-0.23758 0,-0.13075 0.18248,-0.67476 0.40552,-1.20912 0.51375,-1.23084 0.51107,-1.25951 -0.11751,-1.25951 -0.28769,0 -0.85285,-0.1255 -1.25587,-0.27891 l -0.73283,-0.2789 0.62281,-0.66362 c 0.34253,-0.36499 0.84685,-0.7348 1.12071,-0.82181 0.76653,-0.24355 0.59643,-0.81322 -0.51585,-1.72761 -0.55758,-0.45836 -1.31792,-1.39958 -1.68963,-2.09158 -0.80171,-1.49243 -0.72815,-1.44835 -4.293,-2.57233 -1.76374,-0.5561 -3.46059,-1.31506 -4.56799,-2.04315 l -1.76185,-1.15839 0.15113,3.17959 c 0.0831,1.74878 0.40156,4.39739 0.70767,5.88581 0.55735,2.70998 1.88839,7.18037 2.42545,8.14592 0.15728,0.28266 0.66611,1.3664 1.13088,2.40831 3.54205,7.94044 11.21619,15.70143 19.57001,19.79149 1.32738,0.64989 2.51349,1.18162 2.63582,1.18162 0.12239,0 0.22237,-0.85245 0.22237,-1.89434 z m 12.17078,0.94063 c 0.18807,-0.22686 0.26673,-0.48777 0.17482,-0.57981 -0.19635,-0.19655 -0.99125,0.40873 -0.99125,0.75479 0,0.37278 0.44061,0.27831 0.81645,-0.17494 z m 10.17673,-0.28226 c 0.2362,-0.61616 -0.39372,-1.18436 -0.72734,-0.65611 -0.14029,0.22201 -0.2568,0.55589 -0.25908,0.74193 -0.005,0.48698 0.79352,0.4174 0.98642,-0.0858 z m -10.72283,-0.68775 c 0,-0.48187 -0.93482,-0.12659 -1.03483,0.39321 -0.0812,0.42216 -0.0145,0.44949 0.46999,0.19035 0.31065,-0.16643 0.56484,-0.42904 0.56484,-0.58356 z m 6.74198,-3.07117 c -0.39657,-0.39865 -1.17836,0.51971 -0.94987,1.1158 0.17265,0.45034 0.2328,0.43464 0.69824,-0.18199 0.32318,-0.42817 0.41514,-0.76946 0.25163,-0.93381 z m 24.4582,-1.59418 0.53209,-0.71343 -1.04621,-2.09946 c -1.03099,-2.06892 -1.04887,-2.08698 -1.22907,-1.24202 -0.10052,0.47159 -0.27007,2.04683 -0.37667,3.50052 l -0.19382,2.64312 0.89079,-0.68767 c 0.48995,-0.37821 1.13024,-1.00869 1.42289,-1.40106 z m -26.19888,0.90602 c 0.0918,-0.14868 0.0454,-0.27062 -0.10324,-0.27062 -0.1486,0 -0.34551,0.12188 -0.43741,0.27062 -0.0919,0.14887 -0.0454,0.27064 0.10323,0.27064 0.14861,0 0.34553,-0.12188 0.43742,-0.27064 z m 31.36842,-3.58573 c 4.14589,-4.26679 6.58301,-7.75298 8.92065,-12.76064 4.39193,-9.40813 5.07203,-20.46757 1.89052,-30.74169 -0.39179,-1.26515 -0.88162,-2.66561 -1.08858,-3.11213 -2.23057,-4.81305 -2.66502,-5.63356 -4.24233,-8.01236 -1.23387,-1.86084 -1.43614,-2.02117 -2.81524,-2.23139 l -1.1109,-0.16933 1.78675,1.83462 c 1.58436,1.62678 3.59171,4.65449 3.0859,4.65449 -0.10449,0 -1.00579,-0.54799 -2.00307,-1.21779 -0.99725,-0.66976 -1.87373,-1.21777 -1.9477,-1.21777 -0.074,0 0.22417,0.85446 0.6625,1.89885 1.3584,3.2364 2.32145,7.8435 1.63958,7.8435 -0.11788,0 -0.44353,-0.70024 -0.72362,-1.55608 -0.28011,-0.85585 -0.57901,-1.64057 -0.66424,-1.74384 -0.0852,-0.1034 -0.1638,1.29719 -0.17464,3.11216 -0.0163,2.81047 -0.13126,3.66112 -0.77213,5.73549 -1.08511,3.51211 -1.32112,3.51211 -1.11737,0 0.0949,-1.63725 0.0671,-3.34218 -0.0622,-3.7887 -0.22432,-0.77551 -0.24321,-0.74936 -0.42192,0.58404 -0.23127,1.72536 -0.93317,3.80059 -2.04252,6.03881 -0.90807,1.83213 -2.7105,4.44535 -2.92087,4.23477 -0.0704,-0.0704 0.066,-0.79507 0.3027,-1.61043 0.68464,-2.35755 0.53153,-2.62483 -0.5669,-0.98963 -1.25716,1.87146 -5.38159,6.14955 -5.66,5.87085 -0.11479,-0.11499 0.18475,-1.02692 0.66551,-2.02681 l 0.87413,-1.81801 -0.7528,0.86008 c -0.41404,0.47303 -1.52499,1.72054 -2.46881,2.77222 -1.47246,1.64077 -1.64513,1.93678 -1.21651,2.08559 3.06019,1.06257 4.70598,2.52444 5.35385,4.7556 0.36345,1.25172 0.72314,1.79468 1.9054,2.87634 1.9604,1.79354 2.83768,3.13801 2.83581,4.34597 -0.002,1.77242 -0.54496,3.04527 -1.91513,4.4955 -1.30741,1.38384 -1.32737,1.43118 -1.32216,3.13792 0.004,1.43236 0.19392,2.15529 1.09277,4.16847 0.5981,1.33958 1.28327,2.89226 1.52258,3.45043 0.23933,0.55817 0.51174,1.01483 0.60538,1.01483 0.0936,0 1.38314,-1.24825 2.86552,-2.77387 z m -39.69153,-3.34064 c 0.479,-0.36572 1.63524,-1.71739 2.56944,-3.00373 4.51852,-6.22171 6.51109,-8.74547 8.12831,-10.29516 1.52221,-1.45867 3.04468,-2.44927 3.32818,-2.16547 0.0472,0.0473 -0.64886,0.93357 -1.54685,1.96956 -2.25974,2.60699 -2.22431,2.4905 -1.33151,4.38028 1.26232,2.67197 1.36413,2.61425 2.97136,-1.68479 0.61209,-1.63724 1.30666,-3.42502 1.54347,-3.97281 l 0.43057,-0.996 -1.57096,-3.25513 c -1.51013,-3.12912 -1.61867,-3.27541 -2.80358,-3.77865 -1.64442,-0.69842 -3.38222,-0.96452 -3.98941,-0.61091 -0.44286,0.25791 -0.43104,0.28453 0.12963,0.29203 0.75784,0.0109 2.49192,0.71237 2.49215,1.00923 9e-5,0.11935 -0.59214,0.17567 -1.31605,0.1255 -2.52489,-0.1753 -4.27051,1.28136 -6.92013,5.7744 -0.78998,1.33958 -1.87558,3.10261 -2.41248,3.91783 -0.53691,0.81524 -0.97618,1.61152 -0.97618,1.76947 0,0.15792 0.26744,0.76966 0.59428,1.35927 0.50295,0.90733 0.59642,1.50873 0.60826,3.91359 0.0127,2.47921 -0.0675,2.99679 -0.62478,4.05931 -0.35133,0.66978 -0.89694,1.49967 -1.21247,1.84416 l -0.57371,0.62639 0.80576,-0.30668 c 0.44319,-0.1686 1.19767,-0.60589 1.67666,-0.97162 z m -7.82478,-5.39981 c 1.8148,-0.75905 3.04587,-2.37949 3.4513,-4.5429 0.15548,-0.82931 0.0342,-1.32913 -0.67022,-2.76129 -0.90984,-1.85008 -1.48742,-2.17805 -1.90403,-1.08116 -0.65524,1.72521 -3.58632,3.6624 -5.5414,3.6624 h -0.92739 l 0.73203,1.69499 c 1.45018,3.35792 2.5028,4.01376 4.85971,3.02796 z m 38.03373,-10.99388 c -0.53257,-0.46807 -1.50832,-1.60861 -2.16835,-2.53454 -1.13582,-1.59333 -1.99478,-2.20781 -3.22669,-2.30823 -1.66489,-0.13564 -1.93247,0.31673 -0.81104,1.37135 0.78334,0.73666 0.86316,1.50927 0.22845,2.21132 -0.90911,1.0056 -2.52634,0.27029 -2.52634,-1.14864 0,-1.40346 -0.21831,-1.60518 -1.71854,-1.58802 -1.17639,0.0127 -1.31397,0.0656 -0.89387,0.3383 1.15097,0.74725 1.38585,0.96383 1.22261,1.12724 -0.25994,0.26022 -4.28735,-1.50717 -4.28735,-1.88145 0,-0.17875 -0.30414,-0.46369 -0.67586,-0.63324 -0.84876,-0.3871 -0.84419,-0.21109 0.0492,1.89493 1.09503,2.5812 1.53151,3.10021 2.77457,3.29921 2.14094,0.34269 5.36131,1.53739 6.99724,2.59583 0.91764,0.59374 1.66844,0.97454 1.66844,0.84627 0,-0.25979 -1.78207,-1.88506 -2.58966,-2.3618 -0.28559,-0.16861 -0.43982,-0.3902 -0.3427,-0.49247 0.36324,-0.38252 2.38924,0.97401 3.78509,2.53435 l 1.44518,1.61545 1.01891,-2.01742 1.01894,-2.0174 z m -28.86748,-1.57706 c 2.28621,-3.85607 4.54609,-6.26309 6.29348,-6.70331 1.23115,-0.31017 3.62875,-0.0196 4.18906,0.50791 0.33164,0.31213 0.68939,0.31003 0.68939,-0.004 0,-0.13528 -0.54723,-0.59185 -1.21606,-1.01483 -0.66884,-0.42298 -1.21627,-0.86039 -1.21653,-0.97202 -2.7e-4,-0.11156 0.59289,-0.20298 1.31812,-0.20298 0.87062,0 1.43874,-0.14488 1.67225,-0.42656 0.47776,-0.57626 0.0732,-0.80812 -2.0589,-1.17978 -0.91511,-0.15936 -2.25951,-0.47093 -2.98753,-0.69202 -0.72802,-0.22108 -1.41024,-0.40329 -1.51603,-0.4049 -0.20272,-0.004 -0.58137,1.31738 -0.8823,3.0768 -0.2153,1.25876 -0.35431,1.14564 -1.62326,-1.32071 l -0.97466,-1.89434 0.12781,3.04449 c 0.0704,1.67447 0.045,3.04245 -0.0561,3.03997 -0.26675,-0.007 -2.86476,-4.43073 -3.81134,-6.49038 -0.44464,-0.96745 -0.81403,-1.61282 -0.82085,-1.4341 -0.0217,0.5665 0.56279,3.11315 1.26063,5.49341 0.37092,1.26516 0.76931,2.66563 0.88534,3.11215 0.11606,0.44654 0.34693,1.15469 0.51314,1.5737 1.29507,3.26446 -1.45666,-0.23443 -3.15311,-4.0093 -0.33443,-0.7442 -0.96526,-2.32734 -1.40181,-3.51807 -0.43654,-1.19072 -0.79964,-2.10402 -0.80687,-2.02955 -0.0412,0.42491 0.81825,3.95917 1.21702,5.00445 1.21332,3.18029 -1.02307,0.91319 -3.09907,-3.14164 -0.76729,-1.49867 -1.57839,-3.23117 -1.80245,-3.84997 -1.46836,-4.05543 -2.14837,-8.67182 -1.9098,-12.96476 0.089,-1.60004 0.11209,-2.90917 0.0515,-2.90917 -0.23669,0 -1.49914,4.46727 -1.49914,5.30478 0,0.48816 -0.12167,0.96282 -0.27034,1.0548 -0.43182,0.26716 -0.3239,-4.88101 0.15042,-7.17144 0.88634,-4.28082 1.77447,-6.64831 3.68332,-9.81878 0.60779,-1.0095 1.05381,-1.88677 0.99117,-1.94948 -0.22669,-0.22692 -3.3768,1.96374 -5.03587,3.50204 -2.8279,2.62207 -2.47746,1.40595 0.88087,-3.05688 2.49224,-3.31189 4.09303,-4.78912 7.81785,-7.21445 2.16958,-1.41264 2.76527,-1.91648 2.34265,-1.98144 -0.54556,-0.0838 -2.56924,0.53175 -4.6714,1.42097 -0.5528,0.23385 -1.25431,0.42515 -1.55888,0.42515 -0.99114,0 -5.74366,2.41258 -8.92551,4.53096 -2.26035,1.50485 -4.03268,2.99714 -6.49331,5.46729 -4.47056,4.4879 -6.211,7.11401 -9.60516,14.49297 -0.93915,2.04171 -2.82091,9.71916 -2.82454,11.52395 -4.2e-4,0.32458 0.28096,0.42848 1.16146,0.42848 0.86384,0 1.86356,0.35668 3.89299,1.38886 2.70331,1.37494 2.73222,1.38262 2.8869,0.76563 0.26803,-1.06903 1.19281,-1.99342 2.17965,-2.17876 0.59932,-0.11264 1.14101,-0.4594 1.4953,-0.95748 0.72489,-1.01905 1.79294,-1.23975 3.22461,-0.66632 0.62193,0.24911 1.18071,0.40295 1.24172,0.34185 0.0611,-0.061 -0.25312,-1.26366 -0.69809,-2.67241 -0.92451,-2.92694 -1.59791,-6.1486 -1.59798,-7.64505 -7e-5,-1.93002 1.37786,-3.14538 2.94577,-2.59824 1.30648,0.45592 1.52834,0.96601 2.87034,6.59941 0.92281,3.87374 2.22951,7.18991 3.43409,8.71516 0.40682,0.51514 1.25318,2.2512 1.57842,3.23771 0.16343,0.4959 0.4703,0.90164 0.6818,0.90164 0.24704,0 0.38455,0.2903 0.38455,0.81187 0,0.92109 0.20649,0.97202 2.05337,0.5065 0.66629,-0.16788 1.27462,-0.24209 1.35186,-0.1648 0.0772,0.0773 -0.23156,0.74575 -0.6862,1.48544 -0.45466,0.73965 -0.82664,1.412 -0.82664,1.49407 0,0.0822 0.48661,0.23158 1.08137,0.33216 0.59473,0.10069 1.08136,0.24592 1.08136,0.32299 0,0.0772 -0.32126,0.52228 -0.71389,0.98939 l -0.7139,0.8493 0.84907,0.24376 c 1.09194,0.31349 1.0707,0.59405 -0.097,1.28379 -0.52041,0.30738 -0.94364,0.63816 -0.94051,0.73508 0.004,0.0971 0.64304,0.84603 1.42205,1.66464 0.779,0.81864 1.76691,1.94878 2.19535,2.51144 l 0.779,1.023 0.88754,-1.42893 c 0.48813,-0.78593 1.71785,-2.8294 2.73267,-4.54107 z m -14.84963,2.63856 c -0.0935,-0.5347 -0.13215,-0.55111 -0.31829,-0.13456 -0.11661,0.26082 -0.11607,0.80883 10e-4,1.21779 0.20043,0.69935 0.21937,0.70738 0.31832,0.13456 0.0579,-0.33489 0.0573,-0.8829 -0.001,-1.21779 z m 4.37854,-0.84543 c -0.31808,-0.5397 -0.74883,-0.98128 -0.95718,-0.98128 -0.53584,0 -0.48606,0.12967 0.46821,1.21747 1.03984,1.18555 1.26332,1.07762 0.48897,-0.23619 z m 39.84119,-1.80474 c -0.43375,-0.73503 -1.70737,-1.84189 -1.70737,-1.48382 0,0.1782 1.91408,2.30728 2.07429,2.30728 0.0655,0 -0.0996,-0.37054 -0.36692,-0.82346 z m -38.40616,-0.97948 c -0.18587,-0.0752 -0.49001,-0.0752 -0.67586,0 -0.18587,0.0752 -0.0338,0.13637 0.33793,0.13637 0.37172,0 0.52377,-0.0614 0.33793,-0.13637 z m -9.2284,-1.76782 -0.84439,-0.86454 -1.12912,0.54743 -1.12914,0.54743 -1.16491,-0.65174 c -0.64069,-0.35849 -1.40936,-0.96286 -1.70817,-1.34312 -0.29878,-0.38023 -0.54325,-0.59509 -0.54325,-0.47743 0,0.11772 0.32043,0.63445 0.71206,1.14843 1.00553,1.31971 2.5411,1.94494 4.79444,1.95217 l 1.85686,0.005 -0.84438,-0.86454 z m 3.35123,0.32226 c 1.53408,-0.58385 2.29514,-1.88108 2.29514,-3.91201 0,-1.48655 -0.17248,-1.96816 -1.98946,-5.55518 -1.09422,-2.16011 -2.07289,-4.27492 -2.17486,-4.69955 -0.17391,-0.72407 -0.24762,-0.76042 -1.18705,-0.58477 -0.5509,0.10305 -1.03945,0.22444 -1.08566,0.26981 -0.0463,0.0454 0.15674,1.09994 0.4509,2.34347 0.29422,1.2435 0.48484,2.31109 0.4236,2.37237 -0.0613,0.0614 -0.32496,-0.0719 -0.58607,-0.29595 -0.72174,-0.61935 -2.67113,-1.30322 -3.7148,-1.30322 -2.14199,0 -1.93159,2.5357 0.4044,4.87413 0.58403,0.58463 0.6126,0.58669 1.64741,0.11971 0.57919,-0.26145 1.05307,-0.50228 1.05307,-0.53517 0,-0.033 -0.25153,-0.62903 -0.55898,-1.32476 -0.79731,-1.80432 -0.49664,-2.13858 0.56724,-0.63054 0.88624,1.25625 0.93921,1.28545 2.3325,1.28545 1.26885,0 3.33643,0.65996 3.33637,1.06496 0,0.084 -1.00363,0.16733 -2.23031,0.18517 -1.78356,0.0259 -2.54166,0.17422 -3.78475,0.74081 -0.85496,0.38964 -1.55446,0.75539 -1.55446,0.81276 0,0.0574 0.25229,0.67527 0.56064,1.37306 0.47848,1.0828 0.62095,1.21868 0.97203,0.927 0.29818,-0.24774 0.36619,-0.62459 0.24717,-1.36966 -0.2052,-1.28465 0.0188,-1.31844 0.53548,-0.0808 0.3478,0.8333 0.51682,0.95043 1.4055,0.97417 2.2067,0.059 2.87614,0.62744 0.87939,0.74681 -1.2448,0.0744 -1.54158,0.40333 -1.10341,1.22288 0.58,1.08489 1.63327,1.44559 2.85897,0.97911 z m 6.21509,-0.26958 c 0.0918,-0.14869 -0.0226,-0.2706 -0.25439,-0.2706 -0.2318,0 -0.42146,0.1217 -0.42146,0.2706 0,0.14904 0.11443,0.27063 0.25438,0.27063 0.13994,0 0.32958,-0.12188 0.42147,-0.27063 z m 29.42529,-0.95884 c -0.0881,-0.22967 -0.21807,-0.35955 -0.28893,-0.28862 -0.0709,0.071 -0.0487,0.25885 0.0494,0.4176 0.26656,0.43178 0.42237,0.3479 0.23958,-0.12912 z m -3.15271,-1.25687 c -0.0863,-0.21587 -0.15043,-0.15176 -0.16326,0.16354 -0.0109,0.28526 0.0523,0.4451 0.14192,0.35517 0.0898,-0.09 0.0994,-0.32332 0.0214,-0.51869 z m 7.52642,-0.77371 0.69135,-1.36573 -0.79635,0.41224 c -1.56006,0.80759 -2.15558,1.87889 -1.1855,2.13265 0.26019,0.0681 0.50146,0.13782 0.53613,0.15502 0.0347,0.0181 0.37414,-0.58318 0.75437,-1.33431 z m -46.36986,0.47026 c 0,-0.52512 -0.7351,-1.43573 -0.96954,-1.20104 -0.23105,0.23129 0.40306,1.55524 0.74487,1.55524 0.12366,0 0.22467,-0.15937 0.22467,-0.3542 z m 11.75983,-0.18704 c 0.21145,-0.3425 -0.14644,-0.3425 -0.67585,0 -0.34946,0.22607 -0.34233,0.2629 0.0517,0.26649 0.25142,0.002 0.53233,-0.11772 0.62423,-0.26649 z m -13.8617,-1.89434 c 0.18279,-0.29215 -0.0181,-0.85663 -0.71445,-2.01375 -0.53266,-0.88429 -0.96845,-1.82808 -0.96845,-2.09732 0,-0.69558 -0.95747,-0.62275 -1.47155,0.1121 -0.59176,0.84574 -0.52349,1.87225 0.19554,2.94031 0.98713,1.46635 2.38986,1.96829 2.95891,1.0588 z m -4.42483,-1.12435 c -0.55599,-1.00876 -0.87888,-1.24893 -2.52972,-1.88184 -1.04083,-0.39904 -2.29324,-0.8889 -2.78316,-1.08856 -0.7647,-0.31165 -0.92577,-0.30635 -1.13812,0.0377 -0.41142,0.66641 0.32859,1.41609 2.46463,2.49686 1.90861,0.96568 4.32208,1.86039 4.52705,1.67822 0.0532,-0.0473 -0.19015,-0.60627 -0.54068,-1.24224 z m 54.63476,-0.66911 c 0.64545,-1.4607 0.70764,-2.11244 0.18229,-1.91062 -0.20406,0.0784 -1.23852,0.40114 -2.29878,0.71723 l -1.92776,0.5747 0.40486,0.78371 c 0.31573,0.61118 0.62838,0.80709 1.42017,0.88996 0.55843,0.0585 1.1617,0.12659 1.34061,0.15159 0.17898,0.025 0.57428,-0.51799 0.87861,-1.20671 z m -5.10771,-2.00008 c 2.26798,-0.32573 5.93582,-1.51351 6.50832,-2.10761 0.7575,-0.78607 2.66101,-7.52185 2.66524,-9.43121 0.002,-0.81806 -0.0543,-0.86185 -1.32624,-1.03698 -0.82349,-0.11355 -1.54563,-0.0663 -1.90059,0.12388 -0.56894,0.30479 -0.56748,0.31277 0.23929,1.29254 0.44647,0.5422 0.76051,1.03713 0.69787,1.09983 -0.0626,0.0627 -0.50322,-0.0219 -0.97905,-0.18788 -1.34235,-0.46841 -2.94722,-0.39385 -2.94722,0.13691 0,0.39047 -0.45429,0.42635 -4.12271,0.32537 -2.45643,-0.0677 -4.34122,-0.24166 -4.66336,-0.43062 -0.47096,-0.27622 -0.3838,-0.31848 0.67585,-0.3277 0.6691,-0.005 1.85247,-0.0871 2.62971,-0.18038 l 1.41319,-0.16987 -1.08718,-0.53845 c -1.62923,-0.80691 -2.26335,-2.20279 -2.27254,-5.00263 -0.004,-1.22775 -0.091,-2.23244 -0.19316,-2.23264 -0.62644,-10e-4 -2.65276,5.6233 -2.65276,7.36329 0,0.49126 -0.14192,0.75501 -0.40619,0.75501 -0.34393,0 -0.39098,-0.48732 -0.307,-3.17981 0.10594,-3.3957 0.46242,-4.76523 1.86088,-7.14873 2.00033,-3.40928 5.75148,-4.63486 8.94375,-2.92212 1.36201,0.73075 1.89613,0.67119 3.04631,-0.33973 l 0.99121,-0.87122 -1.11956,-0.99456 c -1.68245,-1.49457 -3.29992,-2.13945 -6.14149,-2.44855 l -2.51279,-0.27331 -1.16378,0.82712 c -1.27713,0.90769 -6.63122,6.29397 -7.96659,8.01447 -0.46209,0.59537 -0.91701,1.00931 -1.01094,0.91988 -0.20843,-0.19845 1.91937,-5.62118 2.43996,-6.21829 0.20486,-0.23497 0.37248,-0.55099 0.37248,-0.70227 0,-0.15122 0.24331,-0.49543 0.54069,-0.76484 0.29737,-0.2694 0.54068,-0.6579 0.54068,-0.86332 0,-0.20544 0.19646,-0.67367 0.43661,-1.04055 0.24011,-0.36687 0.35013,-0.66704 0.24445,-0.66704 -0.3158,0 -1.82586,0.89282 -2.94715,1.74251 -0.57726,0.43741 -1.39022,1.0463 -1.80661,1.35309 -0.41637,0.30678 -1.46474,1.09464 -2.32972,1.75078 -0.86496,0.65615 -1.60358,1.2148 -1.6414,1.24152 -0.0378,0.0268 0.1101,0.40727 0.32852,0.84573 0.84587,1.69735 1.32336,4.29392 1.33764,7.27398 l 0.0145,2.97683 h 1.24414 c 1.04384,0 1.35887,0.13076 1.95663,0.81188 0.39186,0.44652 0.71633,1.01613 0.72103,1.26581 0.009,0.52224 -0.94986,1.34695 -2.14312,1.84174 -1.17093,0.48551 -1.03937,1.14631 0.5296,2.66018 1.43648,1.38599 1.71915,1.89025 0.77666,1.3853 -0.43663,-0.23392 -0.62359,-0.22949 -0.77666,0.0185 -0.15222,0.24656 -0.34087,0.25189 -0.77043,0.0217 -0.76891,-0.41195 -1.12193,-1.14369 -1.12193,-2.32545 0,-0.79319 -0.2138,-1.19809 -1.09241,-2.06884 -0.60081,-0.59545 -1.16061,-1.42408 -1.24398,-1.84135 -0.13685,-0.68523 -0.28143,-0.77116 -1.49318,-0.88774 -0.79045,-0.0761 -1.67284,-0.37415 -2.14787,-0.72574 -1.04924,-0.77654 -1.61917,-0.64145 -2.19997,0.52139 -0.63491,1.27123 -0.60526,3.28034 0.068,4.60121 1.2715,2.49491 5.38958,5.06776 9.99836,6.24663 3.58558,0.91717 8.99451,1.12616 13.26636,0.51261 z m 13.52809,-7.95789 c 0.33191,-1.60981 0.50763,-3.59849 0.50995,-5.7713 0.002,-2.02727 0.10866,-3.31509 0.27391,-3.31509 0.14861,0 0.27219,0.63932 0.27447,1.42077 0.002,0.78141 0.12204,1.6034 0.26621,1.82668 0.18954,0.29358 0.26319,0.0502 0.2662,-0.87953 0.005,-1.72898 0.46473,-1.63658 0.67252,0.13528 0.0917,0.78141 0.26019,2.15144 0.37458,3.04448 l 0.20794,1.62372 0.20292,-1.62372 c 0.22218,-1.77779 -0.13487,-5.33277 -0.78755,-7.84117 -0.57255,-2.20044 -2.21387,-5.58203 -3.86784,-7.96886 -0.76545,-1.10462 -1.34202,-2.05813 -1.28125,-2.11894 0.0608,-0.0608 0.40443,0.0822 0.76375,0.31794 0.35931,0.23567 0.7381,0.34362 0.84172,0.23989 0.1036,-0.10377 0.5385,0.19502 0.96634,0.66393 0.42785,0.46892 1.10448,0.93464 1.50365,1.03493 0.7519,0.18891 2.84043,-0.35086 2.84043,-0.73407 0,-0.31553 -0.95372,-0.77808 -1.60427,-0.77808 -0.68296,0 -0.71085,0.23049 -0.0854,0.70577 0.44904,0.34122 0.44835,0.35995 -0.0127,0.36812 -0.46225,0.009 -1.4674,-0.44797 -2.35206,-1.06739 -0.34028,-0.23825 -0.25359,-0.41063 0.53896,-1.07155 0.51945,-0.43323 0.88442,-0.83922 0.81101,-0.90226 -1.44271,-1.23896 -4.58189,-3.55677 -5.06757,-3.74162 -0.51302,-0.19524 -0.83359,-0.1 -1.57972,0.46978 -0.51487,0.39309 -1.2327,0.74732 -1.5952,0.78715 -0.36252,0.0398 -0.99769,0.30647 -1.4115,0.5925 -0.41381,0.28603 -1.51532,0.80012 -2.44778,1.14244 -1.75064,0.64267 -2.36174,1.09333 -1.48257,1.09333 1.60844,0 5.28362,2.93805 6.41515,5.12843 0.45931,0.88915 0.45782,0.90025 -0.10142,0.75387 -0.3833,-0.10051 -0.56757,-0.0216 -0.56757,0.2428 0,0.21526 -0.24749,0.87701 -0.54999,1.47057 l -0.54998,1.07921 0.75274,-0.17874 c 0.41402,-0.0983 1.16485,-0.34607 1.66852,-0.55046 l 0.91576,-0.37165 -0.17482,-1.70854 c -0.0961,-0.93971 -0.54582,-2.89646 -0.99918,-4.34836 -0.45336,-1.45189 -0.7776,-2.78006 -0.72053,-2.95146 0.17446,-0.52388 1.57558,2.14658 2.35781,4.49382 0.62697,1.88134 1.15247,4.64479 1.42526,7.49483 0.0487,0.50828 0.30009,0.75448 1.01094,0.98989 0.82544,0.27334 0.87718,0.33902 0.40551,0.51471 -1.21219,0.45152 -1.48688,0.94806 -1.48688,2.68789 0,2.79932 -0.71936,6.8586 -2.01564,11.37401 -0.0847,0.2945 0.39746,-0.58054 1.07113,-1.94455 0.67365,-1.36399 1.4235,-3.31246 1.66632,-4.32992 0.24281,-1.01747 0.54471,-1.96564 0.67086,-2.10705 0.30603,-0.343 0.28835,1.87039 -0.0378,4.72234 -0.14463,1.26516 -0.32573,2.84828 -0.40236,3.51808 l -0.13939,1.21779 0.57031,-1.1972 c 0.31369,-0.65846 0.79822,-2.30248 1.07671,-3.65338 z m -52.80827,0.11482 c 0.10557,-1.41861 -0.16217,-1.66949 -1.38237,-1.29463 -0.91142,0.28002 -1.00101,0.38649 -0.84584,1.00538 0.25799,1.0289 0.67824,1.40859 1.45865,1.31777 0.58671,-0.0683 0.71033,-0.23349 0.76956,-1.02852 z m -0.80407,-2.27004 c 0.19132,-0.18704 0.27658,-0.526 0.18946,-0.75328 -0.14119,-0.36854 -0.2583,-0.36642 -1.0825,0.0196 -1.18289,0.55402 -1.33786,1.53589 -0.19825,1.2562 0.40889,-0.10033 0.89996,-0.33549 1.09129,-0.52255 z m 27.32032,0.14362 c 0.6336,-0.17821 0.63368,-0.17857 0.0885,-0.67252 -0.69693,-0.63137 -2.38233,-0.85468 -3.42291,-0.45351 l -0.80788,0.31146 0.6727,0.5174 c 0.68152,0.52416 2.19991,0.65421 3.46953,0.29717 z m 27.53357,-1.31867 c -0.0686,-0.26328 -0.12909,-0.11336 -0.13469,0.33314 -0.005,0.44654 0.0506,0.66194 0.12456,0.47874 0.0742,-0.18324 0.0787,-0.54857 0.0109,-0.81188 z m -45.3374,-0.41108 c 1.07187,-4.27921 2.97759,-8.64939 5.29604,-12.14488 1.19638,-1.80374 4.8871,-5.79871 6.60243,-7.1467 1.01647,-0.79879 4.02169,-2.70165 5.4738,-3.46595 1.24123,-0.65328 2.9064,-1.16978 2.9064,-0.90148 0,0.0721 -0.6995,0.52492 -1.55445,1.00641 -1.87424,1.05555 -4.72691,3.06398 -5.23878,3.68842 -0.20395,0.24877 0.41995,-0.0632 1.38641,-0.69342 2.27623,-1.48419 7.46135,-4.04009 8.56054,-4.21978 0.47072,-0.077 1.44395,-0.3972 2.16274,-0.71168 1.11383,-0.48729 3.8271,-1.28207 4.4834,-1.31327 0.11155,-0.005 0.20275,0.0929 0.20275,0.21815 0,0.12532 -0.51701,0.37948 -1.14894,0.56487 -2.91946,0.85648 -8.55292,4.77876 -11.19254,7.79281 -0.86958,0.99296 -1.39858,1.73583 -1.17557,1.65088 0.22304,-0.0851 1.66375,-1.09631 3.20158,-2.24744 4.31762,-3.23187 7.82419,-5.29919 9.63964,-5.68305 0.78332,-0.16552 0.79257,-0.15629 0.27033,0.26943 -0.29738,0.24252 -1.14894,0.83699 -1.89239,1.32105 -0.74344,0.48404 -1.31894,1.03026 -1.27889,1.2138 0.0651,0.29831 -0.84549,1.56176 -2.55382,3.54346 -1.2933,1.50029 -2.51521,3.13155 -2.51769,3.36117 -10e-4,0.13347 1.12267,-0.84351 2.49804,-2.17114 3.2767,-3.163 6.28412,-5.45186 9.05799,-6.89376 1.20762,-0.62773 1.37553,-0.15828 0.20287,0.56717 -1.27552,0.78915 -1.20256,0.95398 0.12276,0.27718 1.18676,-0.60607 1.81017,-0.6907 1.95192,-0.26497 0.1016,0.30521 1.84361,-0.44149 1.84361,-0.79027 0,-0.32717 -1.28121,-1.96204 -1.85034,-2.36109 -0.2917,-0.20452 -1.84992,-0.85898 -3.4627,-1.45434 -3.46213,-1.27806 -5.3238,-1.39645 -8.47978,-0.5393 -2.41406,0.65565 -3.00419,0.86912 -5.74871,2.07953 -2.9148,1.28553 -3.29492,0.92937 -0.43917,-0.41145 2.04781,-0.9615 4.83187,-1.91706 7.81537,-2.68241 1.75255,-0.44958 -3.35641,-1.22409 -8.32275,-1.26172 l -4.24811,-0.0322 -2.87151,1.4065 c -2.88813,1.41465 -4.9932,2.68434 -6.11395,3.68771 -0.46108,0.41278 -0.53357,0.62756 -0.30483,0.90345 0.44501,0.53674 0.62792,0.47979 3.05867,-0.95235 2.42197,-1.42696 5.08161,-2.74503 5.53903,-2.74503 0.65553,0 0.19619,0.45281 -1.20044,1.18333 -0.81743,0.42754 -1.48624,0.89724 -1.48624,1.04377 0,0.14651 0.18249,0.19247 0.40552,0.10214 0.22303,-0.0904 0.58798,-0.23818 0.81102,-0.32855 0.22303,-0.0904 0.40552,-0.0295 0.40552,0.13528 0,0.16462 -0.10377,0.2996 -0.23061,0.2996 -0.48718,0 -4.94491,4.44336 -6.22446,6.20439 -1.39923,1.92577 -3.00686,4.62226 -3.00686,5.04341 0,0.13419 0.30851,-0.21059 0.68559,-0.76609 1.02822,-1.51471 1.29448,-1.21634 0.48733,0.54607 -2.04076,4.45611 -2.7228,6.48793 -3.04606,9.07429 -0.27968,2.23782 -0.19256,6.14815 0.13703,6.14815 0.0514,0 0.22291,-0.51756 0.38135,-1.15015 z m 0.27344,-5.03177 c 0,-0.98779 2.26681,-5.971 3.67254,-8.07348 1.22719,-1.8354 3.38119,-4.34177 4.84306,-5.63526 3.15152,-2.78854 3.04761,-2.29617 -0.26847,1.2721 -3.7763,4.06349 -6.15585,7.72883 -7.30929,11.25894 -0.25267,0.77327 -0.56704,1.40596 -0.69862,1.40596 -0.13161,0 -0.23922,-0.10287 -0.23922,-0.22826 z m -10.40575,4.82619 c 0.42274,-0.4676 0.44286,-0.63519 0.14354,-1.19501 -0.67107,-1.25522 -2.17349,-0.91908 -2.17349,0.48627 0,1.24192 1.17655,1.65269 2.02994,0.70874 z m 23.73528,0.37075 c 0.095,-0.0953 -0.21915,-0.36923 -0.69837,-0.60891 -1.72843,-0.86443 -2.58037,-4.44051 -1.74087,-7.30729 0.57277,-1.95595 -0.12764,-2.27012 -1.08282,-0.48574 -0.33151,0.61929 -0.46165,1.51072 -0.46165,3.16264 0,3.0831 0.64408,4.3048 2.65785,5.04145 1.08474,0.39682 1.1216,0.40233 1.32586,0.19785 z m 19.08204,-0.79974 c 0.98994,-0.58539 1.90976,-1.99107 2.10963,-3.22393 0.23012,-1.41964 -0.39369,-1.15487 -0.9721,0.4126 -1.13406,3.0732 -5.01241,3.24412 -6.24097,0.27504 -0.33862,-0.81834 -0.81473,-0.87766 -0.81473,-0.1016 0,0.77921 0.81162,2.13251 1.55601,2.59453 0.96144,0.59675 3.3855,0.62078 4.36216,0.0433 z m -18.62418,-0.67134 c 0,-0.1284 -0.15982,-0.17168 -0.355,-0.0969 -0.48141,0.18494 -1.12395,-0.60418 -1.55714,-1.91238 -0.24469,-0.73898 -0.39182,-0.9254 -0.46362,-0.58749 -0.16614,0.78149 0.14409,1.65185 0.86704,2.43269 0.61818,0.66771 1.50872,0.76453 1.50872,0.16389 z m 25.95274,-0.65609 c 0,-0.99186 -0.4774,-1.23564 -1.34463,-0.68666 -0.33596,0.21269 -0.29678,0.36054 0.24989,0.94305 0.86753,0.9244 1.09474,0.87118 1.09474,-0.25639 z m -69.6941,-0.74417 c -0.15548,-0.18607 -0.68739,-0.55935 -1.18205,-0.82953 l -0.89939,-0.49126 0.93599,0.82953 c 0.92309,0.81811 1.69528,1.14926 1.14545,0.49126 z m 69.89148,-1.69849 c -0.10413,-0.77806 -0.13866,-0.7915 -1.41937,-0.55098 -1.20416,0.22612 -1.24398,0.89205 -0.0622,1.03885 0.48324,0.0601 1.03485,0.12876 1.22579,0.1523 0.22259,0.0279 0.31436,-0.20201 0.25573,-0.64033 z m 8.20613,-1.78032 c -0.14245,-0.3565 -0.26673,-0.5059 -0.27614,-0.33203 -0.023,0.42234 0.29202,1.2236 0.42758,1.08792 0.0592,-0.0592 -0.009,-0.39938 -0.15151,-0.75589 z m -18.67648,-0.66801 c 0,-0.25203 -0.18393,-0.39007 -0.45068,-0.33827 -0.67822,0.13166 -0.77135,0.76402 -0.11245,0.76402 0.33207,0 0.56321,-0.17458 0.56321,-0.42575 z m 17.9812,-1.6655 c -0.76114,-2.04768 -2.54934,-5.38386 -3.17957,-5.93201 -0.52113,-0.45329 -0.5095,-0.38467 0.12149,0.71651 1.00658,1.75659 2.82488,5.4414 3.04812,6.17703 0.10503,0.3461 0.25825,0.56192 0.34047,0.47961 0.0823,-0.0824 -0.0666,-0.73085 -0.33053,-1.44114 z m -7.4379,0.21288 c 0,-1.07294 -0.26926,-1.16889 -1.15057,-0.41005 -0.89882,0.77394 -0.91082,0.8651 -0.1336,1.01496 1.20632,0.23259 1.28411,0.19595 1.28411,-0.60491 z m -27.06592,-5.02922 c 0.54342,-0.922 0.54453,-0.94446 0.0329,-0.67036 -0.47716,0.25564 -1.08244,1.0783 -1.08244,1.4712 0,0.45793 0.55904,0.0313 1.04953,-0.80084 z m 35.09073,-0.39916 c 1.13713,0 0.41774,-0.48193 -1.01355,-0.67899 -1.52709,-0.21023 -1.69682,-0.14741 -1.43672,0.53097 0.1374,0.35829 0.37291,0.43218 0.98634,0.30936 0.44325,-0.0887 1.10203,-0.16136 1.46393,-0.16136 z m -85.07198,61.01594 c -1.77343,-0.55223 -2.43261,-0.96401 -2.85645,-1.78449 -0.33395,-0.64645 -0.32237,-0.79805 0.1007,-1.32114 0.36921,-0.45643 0.79646,-0.60035 1.87743,-0.63244 1.75109,-0.052 1.87997,0.45201 0.16234,0.63503 -0.69838,0.0744 -1.31453,0.27181 -1.36924,0.43866 -0.2076,0.63325 2.39759,1.56009 4.65332,1.65553 3.05288,0.1293 3.14078,0.0283 2.22673,-2.55732 -0.922,-2.60806 -0.95631,-3.83954 -0.12853,-4.61798 1.16155,-1.09236 3.79518,-1.03236 6.05925,0.13782 1.5387,0.79541 1.72371,2.31727 0.36989,3.04257 -0.66476,0.35614 -3.71251,0.36095 -3.93153,0.005 -0.10269,-0.16625 0.3442,-0.2706 1.16024,-0.2706 3.169,0 4.08255,-1.30526 1.54318,-2.20487 -1.51685,-0.53733 -3.68812,-0.64459 -4.4784,-0.2212 -0.72393,0.38785 -0.67276,1.6499 0.14769,3.64386 0.86728,2.10754 0.84924,2.71477 -0.10919,3.6742 -0.7124,0.71314 -0.95871,0.78927 -2.50067,0.77295 -0.94072,-0.0109 -2.25787,-0.18858 -2.92694,-0.39693 z m 98.94479,-1.06385 c 0,-0.67344 -0.1589,-1.02275 -0.56366,-1.23963 -1.23312,-0.66066 -2.02824,-3.8643 -1.22273,-4.92652 0.77601,-1.02335 1.59197,-0.19492 2.06578,2.09732 l 0.33562,1.6237 0.51821,-1.2109 c 0.28503,-0.66602 0.65713,-1.29686 0.82689,-1.4019 0.91798,-0.56791 2.17799,1.54455 2.03991,3.41993 -0.0648,0.8797 -0.18318,1.08724 -0.62019,1.08724 -0.45642,0 -0.54866,-0.1993 -0.59527,-1.28627 -0.0304,-0.70743 -0.1741,-1.499 -0.31948,-1.75904 -0.23309,-0.41693 -0.29915,-0.38111 -0.55908,0.30329 -0.16217,0.42681 -0.53563,1.08258 -0.83004,1.45726 -0.32377,0.41203 -0.53527,1.09447 -0.53527,1.72718 0,0.57529 -0.12167,1.04598 -0.27033,1.04598 -0.14861,0 -0.27036,-0.42194 -0.27036,-0.93764 z m -0.35033,-4.32127 c -0.4251,-1.61409 -1.00137,-1.96803 -1.00137,-0.61503 0,0.91347 0.53567,2.53179 0.98993,2.99072 0.3782,0.3821 0.38466,-0.95869 0.0109,-2.37569 z m 4.23437,-5.41401 c -1.62369,-1.0946 -1.87026,-1.55682 -1.16924,-2.19187 0.42349,-0.38368 0.80592,-0.43422 2.14101,-0.28302 2.10972,0.23894 1.99396,-0.13872 -0.53764,-1.75448 -1.85602,-1.18449 -2.36288,-1.9803 -1.47779,-2.32027 0.4715,-0.18114 4.24692,1.08013 5.7153,1.90933 2.16227,1.22107 1.13442,1.91608 -1.28213,0.86697 -0.89761,-0.38968 -1.6966,-0.70852 -1.77553,-0.70852 -0.079,0 0.43709,0.52619 1.1467,1.16931 2.0219,1.83244 1.39073,2.46263 -1.78392,1.7811 -2.19524,-0.4713 -2.09462,-0.0248 0.4157,1.84454 1.32111,0.98375 0.13595,0.71727 -1.39246,-0.31309 z m -107.83016,-1.50503 c -0.31588,-0.51164 0.13795,-0.75814 2.22937,-1.21067 2.57528,-0.55726 4.77076,-1.34184 5.79213,-2.06987 1.23362,-0.87933 0.69866,-1.14497 -1.90269,-0.94481 -2.54073,0.19551 -2.72656,-0.12225 -0.36074,-0.61692 2.06184,-0.43109 2.95565,-0.37198 3.56258,0.23559 0.9591,0.96009 0.10828,2.16712 -2.30742,3.27357 -2.89107,1.3242 -6.58521,2.02638 -7.01323,1.33311 z m 112.63847,-9.53682 0.0828,-1.14758 -1.21104,-0.17349 c -1.60382,-0.22978 -3.23861,-0.93133 -3.23861,-1.3898 0,-0.20242 0.16127,-0.5889 0.35854,-0.85887 0.30175,-0.41309 0.65508,-0.47348 2.23032,-0.38136 2.24455,0.1313 3.99388,0.88844 4.12089,1.7836 0.0651,0.45842 -0.0481,0.6089 -0.45778,0.6089 -0.69116,0 -1.38582,0.97975 -1.38582,1.95456 0,0.41341 -0.13089,0.75165 -0.29102,0.75165 -0.175,0 -0.25803,-0.45728 -0.20824,-1.14757 z m 0.16741,-2.05614 c 0.22141,-0.14053 -0.14734,-0.3321 -1.03441,-0.53709 -2.5154,-0.58122 -3.33106,-0.24919 -0.98048,0.39913 1.4277,0.39378 1.59429,0.40517 2.01489,0.13782 z m -111.52182,2.23038 c -0.18584,-0.0849 -0.3379,-0.37077 -0.3379,-0.63541 0,-0.41472 0.33149,-0.50007 2.401,-0.61819 4.00426,-0.22855 3.92156,-0.97258 -0.13631,-1.22599 -1.5976,-0.0998 -2.26474,-0.24441 -2.26474,-0.49098 0,-0.19228 0.21287,-0.40563 0.47308,-0.47418 0.2602,-0.0686 1.05408,-0.27612 1.76418,-0.46128 0.71009,-0.18517 1.35595,-0.44177 1.43525,-0.57019 0.19479,-0.31551 0.65293,-0.29686 0.65293,0.0266 0,0.14289 -0.25617,0.49899 -0.56928,0.79099 l -0.56927,0.53092 1.28124,0.19232 c 1.37569,0.20651 2.37156,0.94652 2.12816,1.58142 -0.25911,0.67594 -1.8787,1.24284 -3.93681,1.37798 -1.091,0.0717 -2.13571,0.0609 -2.32158,-0.0241 z m -2.33081,-8.17166 c -0.0827,-0.13365 -0.23016,-0.74447 -0.32806,-1.35727 -0.15457,-0.96737 -0.30033,-1.15464 -1.10609,-1.42086 -1.05719,-0.34925 -1.15129,-1.14578 -0.15222,-1.28847 0.70173,-0.10033 0.69934,-0.0768 0.30538,-3.00695 -0.19438,-1.44594 -0.2075,-2.32504 -0.0373,-2.49547 0.1703,-0.17042 0.32388,0.14796 0.43607,0.90383 0.0953,0.64184 0.31161,1.97562 0.48076,2.96396 l 0.30752,1.79698 1.49397,0.30032 c 0.82169,0.16517 2.41651,0.29849 3.54402,0.29621 3.59423,-0.007 3.58097,-0.73826 -0.0403,-2.21859 -2.46916,-1.00938 -2.11702,-1.39731 0.43011,-0.47384 3.13223,1.13558 4.01285,2.38943 2.41219,3.43454 -0.61409,0.40098 -1.28442,0.47265 -4.07839,0.43618 l -3.34352,-0.0436 0.19032,0.72021 c 0.10466,0.39611 0.2064,0.88977 0.22605,1.09702 0.0418,0.44054 -0.52134,0.71111 -0.74065,0.35586 z m 114.45476,-0.32676 c -0.22304,-0.14415 -0.64881,-0.26536 -0.94619,-0.26909 -0.29738,-0.004 -1.17936,-0.30447 -1.95998,-0.66826 -1.58216,-0.73735 -1.84763,-1.43783 -0.81844,-2.15942 0.8253,-0.57869 5.13263,-0.59957 5.60717,-0.0272 0.64855,0.78226 0.0309,1.03769 -2.12333,0.87819 -1.13142,-0.0838 -2.30043,-0.0549 -2.59781,0.0645 -0.47061,0.18867 -0.38301,0.28875 0.67586,0.77214 0.66909,0.30546 1.6119,0.70138 2.09514,0.87984 0.48323,0.17838 0.87861,0.43144 0.87861,0.56223 0,0.30812 -0.30293,0.29588 -0.81103,-0.0328 z m 4.40065,-1.92732 c -0.4153,-0.41573 -0.12637,-1.04949 0.47846,-1.04949 0.66436,0 0.92019,0.47377 0.51788,0.95903 -0.39255,0.47349 -0.59533,0.49189 -0.99634,0.0906 z m 0.19516,-4.14766 c 0,-0.94248 -1.40929,-4.76022 -1.83535,-4.97193 -0.57172,-0.28407 -5.59671,0.0663 -6.61282,0.46108 -0.40889,0.15883 -0.74343,0.4105 -0.74343,0.55922 0,0.44042 1.36162,0.99995 3.31167,1.3609 1.00365,0.18575 1.8248,0.44574 1.8248,0.57773 0,0.33054 -0.91263,0.28624 -2.90075,-0.14072 -2.24163,-0.48147 -3.10455,-1.05882 -2.99548,-2.00411 0.13523,-1.17206 2.02921,-1.95124 5.20378,-2.14082 1.42165,-0.0849 2.58485,-0.18345 2.58485,-0.219 0,-0.0355 -0.18173,-0.41344 -0.40385,-0.83976 -0.49848,-0.95677 -0.52297,-1.72232 -0.0552,-1.72232 0.19366,0 0.56832,0.6019 0.83258,1.33757 0.42466,1.18213 0.5801,1.34724 1.33754,1.42075 0.64909,0.063 0.85704,0.21451 0.85704,0.62443 0,0.36061 -0.20994,0.57103 -0.62894,0.63045 -0.38479,0.0545 -0.57646,0.22606 -0.49377,0.44179 0.44593,1.16326 1.25788,4.07057 1.25788,4.50402 0,0.282 -0.12167,0.51273 -0.27034,0.51273 -0.14862,0 -0.27034,-0.1764 -0.27034,-0.39196 z M 245.854,737.3752 c -0.14842,-0.39076 -0.26982,-1.06476 -0.26982,-1.49775 0,-0.60107 -0.19185,-0.88661 -0.81103,-1.20714 -0.86389,-0.44719 -0.93738,-0.59915 -0.5703,-1.17909 0.14589,-0.23041 0.44649,-0.29923 0.8069,-0.18474 0.54714,0.17386 0.57457,0.0949 0.57739,-1.66241 0.002,-1.01472 0.0785,-2.30162 0.17048,-2.85975 0.32656,-1.97778 0.63749,-0.97319 0.63749,2.05962 v 3.07446 l 1.82482,0.57476 c 3.34227,1.05272 5.74474,1.30866 5.74474,0.61204 0,-0.34474 -1.13889,-1.27662 -2.70341,-2.21199 -1.81584,-1.08564 -1.74568,-1.03086 -1.55928,-1.21744 0.2464,-0.24666 3.2662,1.38617 4.22942,2.28687 1.03998,0.97251 1.05232,1.86552 0.0333,2.4051 -0.84987,0.45 -3.42369,0.24333 -5.66457,-0.45483 -0.88503,-0.27574 -1.66311,-0.44733 -1.72906,-0.38132 -0.066,0.0661 -0.0579,0.58368 0.0181,1.15036 0.16723,1.24791 -0.34218,1.72819 -0.73526,0.69325 z m 109.38911,-6.66004 c -0.2203,-0.31483 -0.77463,-0.80018 -1.23187,-1.07853 -1.13159,-0.68887 -1.17371,-2.05539 -0.0879,-2.85211 1.55606,-1.14176 4.54791,-1.58466 5.58359,-0.82657 0.79284,0.58035 0.46008,1.60199 -0.61194,1.87862 -1.17963,0.30441 -1.41885,0.0353 -0.57457,-0.64667 l 0.67182,-0.54256 -1.74006,0.17422 c -2.08323,0.20866 -3.26126,0.75213 -3.26126,1.50452 0,0.6282 0.2761,0.7647 2.06494,1.02085 0.94954,0.13582 1.33353,0.31987 1.4011,0.67099 0.23028,1.19709 -1.48591,1.73753 -2.21385,0.69716 z m -2.86697,-9.58333 c -0.004,-0.30179 0.19581,-0.83895 0.44405,-1.19369 0.44222,-0.63202 0.43814,-0.64142 -0.20275,-0.46601 -1.90583,0.52159 -2.76238,0.53378 -3.11986,0.0444 -0.29943,-0.40993 -0.28216,-0.6124 0.10865,-1.27518 0.52187,-0.88491 3.13573,-2.29817 4.72917,-2.55702 0.86426,-0.14035 1.00669,-0.0915 1.00381,0.34537 -0.002,0.37535 -0.49742,0.70921 -1.88494,1.27145 -2.12099,0.85945 -3.46584,1.78404 -2.61739,1.79945 0.27259,0.005 1.47604,-0.24157 2.67432,-0.54783 2.64358,-0.67566 3.28065,-0.38498 1.52448,0.69563 -0.649,0.39934 -1.51128,1.10992 -1.91617,1.5791 -0.64234,0.74429 -0.73709,0.78308 -0.74344,0.30432 z m -87.44483,-8.96861 c -2.58859,-1.90035 -6.27847,-5.51055 -7.64169,-7.4767 -0.63867,-0.92111 -0.66964,-1.07005 -0.29966,-1.44043 0.36998,-0.37037 0.50626,-0.29212 1.31776,0.75673 0.49781,0.64339 1.56655,1.83961 2.37497,2.65822 1.21941,1.23481 1.36853,1.32703 0.87521,0.54124 -0.75735,-1.20629 -2.04796,-3.92115 -2.43144,-5.11453 -0.97422,-3.0319 0.4055,-4.33472 2.38211,-2.2493 1.49499,1.57728 2.737,4.37594 2.92192,6.58408 0.0859,1.02423 0.17356,1.86223 0.195,1.86223 0.0215,0 0.85567,-0.42623 1.85376,-0.94717 0.99809,-0.52095 1.99694,-0.94717 2.21965,-0.94717 0.68766,0 0.44783,0.45779 -0.43067,0.82205 -0.45959,0.19057 -1.57712,0.82623 -2.48339,1.4126 l -1.64778,1.06612 1.5372,1.49054 c 0.84545,0.81981 1.53719,1.59937 1.53719,1.73239 0,0.5163 -1.00477,0.18541 -2.28014,-0.7509 z m -1.34159,-5.3857 c -0.10015,-0.97783 -0.29171,-1.9825 -0.42588,-2.23262 -0.13414,-0.25012 -0.52196,-1.04431 -0.86178,-1.76484 -0.33982,-0.72056 -1.00627,-1.75569 -1.48104,-2.30028 -1.63387,-1.87429 -1.79405,-0.21163 -0.32178,3.33974 0.64583,1.55781 2.67668,4.72724 3.03236,4.7324 0.13414,0.002 0.15964,-0.78161 0.0582,-1.7744 z m 83.52258,6.13223 c -0.0836,-0.13528 -0.0856,-0.41988 -0.004,-0.63216 0.12041,-0.3139 -0.12944,-0.36293 -1.33755,-0.26263 -1.4438,0.11988 -1.49086,0.10196 -1.67653,-0.63858 -0.16759,-0.66826 -0.0385,-0.90019 1.04978,-1.88647 1.33651,-1.21128 3.19755,-1.90892 4.44626,-1.66675 0.41812,0.0811 0.93089,-0.004 1.15663,-0.19304 0.65215,-0.54471 2.11828,-1.04406 2.56338,-0.87308 0.63673,0.24459 0.48572,1.0851 -0.33307,1.85376 -0.4089,0.38386 -1.62401,1.15516 -2.70023,1.71404 -1.57979,0.82033 -2.01998,1.19095 -2.28463,1.92361 -0.33001,0.91356 -0.59929,1.11592 -0.87999,0.6613 z m -0.0617,-2.01716 c 0.93954,-0.39297 2.09734,-1.80081 1.47208,-1.79001 -0.6248,0.0109 -2.49768,0.98976 -3.02188,1.57955 -0.50899,0.57271 -0.5081,0.57947 0.0763,0.57947 0.32519,0 0.98827,-0.16607 1.47352,-0.36901 z m 4.65994,-2.36566 c 0.13107,-0.21219 0.0246,-0.21136 -0.37541,0.004 -0.30703,0.16444 -0.64053,0.43234 -0.7411,0.59524 -0.13107,0.2122 -0.0246,0.21138 0.37541,-0.004 0.30703,-0.16444 0.64053,-0.43236 0.7411,-0.59524 z m -13.43076,-3.0444 c -0.52157,-1.14591 1.32866,-3.81583 3.37662,-4.87259 1.13248,-0.58437 1.54904,-0.31946 1.36809,0.87008 -0.12402,0.81498 -0.025,1.11878 0.56939,1.74832 0.9003,0.95351 0.68569,1.24162 -0.36631,0.49176 l -0.7918,-0.56442 -1.48051,1.48207 c -1.6204,1.62208 -2.23358,1.81568 -2.67548,0.84478 z m 3.26863,-2.93799 c -0.004,-0.19182 -0.49033,0.16408 -1.08135,0.79092 -0.59104,0.62681 -1.07157,1.29661 -1.06785,1.48841 0.004,0.19182 0.49033,-0.16408 1.08137,-0.7909 0.59103,-0.62683 1.07156,-1.29659 1.06783,-1.48843 z m -70.2677,-0.14578 c -0.83844,-1.01757 -1.90658,-3.45796 -1.90658,-4.35602 0,-0.26367 0.16361,-0.70327 0.36345,-0.97693 0.57597,-0.78849 1.53098,-0.33541 2.81164,1.33391 1.73368,2.25982 2.55844,1.89194 1.41477,-0.63106 -0.61733,-1.36189 -0.62299,-1.39123 -0.26896,-1.39123 0.3407,0 1.62661,2.527 1.62661,3.19653 0,0.27956 -0.24382,0.72916 -0.5418,0.99909 -0.4514,0.40896 -0.65645,0.43853 -1.22923,0.17712 -0.94686,-0.43187 -0.93983,-0.44335 -0.46665,0.76243 0.34271,0.87341 0.35784,1.15368 0.0803,1.48841 -0.53087,0.64037 -0.97713,0.49764 -1.88355,-0.60242 z m 0.21045,-3.06233 c -0.62086,-1.88176 -0.56851,-1.78312 -0.68669,-1.29418 -0.11553,0.47767 0.65347,2.56372 0.8664,2.35055 0.0698,-0.0699 -0.0109,-0.54525 -0.17971,-1.05637 z m 59.62275,0.43493 c -0.20518,-0.53528 0.32934,-2.07465 1.13108,-3.25731 0.3626,-0.53489 0.65928,-1.07001 0.65928,-1.18917 0,-0.3191 0.93698,-1.11241 1.31389,-1.11241 0.60865,0 0.63053,0.79048 0.0447,1.61413 -0.70911,0.9969 -0.5271,1.03984 0.63771,0.15031 0.48336,-0.36903 1.17474,-0.70392 1.53643,-0.74419 0.57671,-0.0643 0.65763,0.0349 0.65763,0.80629 0,0.48375 -0.12168,0.84909 -0.27035,0.81187 -0.14861,-0.0373 -0.27049,-0.25032 -0.27069,-0.47359 -2e-4,-0.22325 -0.0915,-0.37548 -0.20276,-0.33828 -0.11136,0.0373 -0.31477,0.0677 -0.4521,0.0677 -0.31962,0 -3.80542,3.49742 -3.80542,3.81814 0,0.39921 -0.81649,0.27114 -0.97933,-0.15358 z m -51.61832,-3.14787 c -1.36897,-2.06135 -3.18235,-6.20978 -3.03938,-6.95305 0.15224,-0.79166 1.09153,-0.55257 1.36468,0.34741 0.13559,0.44654 0.50488,1.47723 0.82081,2.29048 l 0.57442,1.47861 0.28307,-1.47861 c 0.26711,-1.39534 0.32826,-1.47861 1.08548,-1.47861 0.6514,0 0.92048,0.20374 1.42967,1.08247 1.12604,1.94328 0.55997,5.85662 -0.93591,6.47029 -0.1843,0.0757 -0.87198,-0.6886 -1.58284,-1.75899 z m 2.20608,-1.94422 c -0.15891,-1.59884 -0.77928,-3.173 -1.25051,-3.173 -0.436,0 -0.29912,3.01979 0.20007,4.41394 0.42636,1.19075 0.49764,1.25998 0.83594,0.81185 0.26201,-0.34713 0.32454,-0.94547 0.2145,-2.05279 z m 39.41694,3.48743 c -0.5104,-1.3315 1.1117,-6.48315 3.48343,-11.06297 0.90711,-1.75158 1.7776,-3.14196 1.93441,-3.08971 0.60457,0.20145 0.4056,1.03109 -0.79284,3.30572 -1.32631,2.51733 -1.45149,3.13287 -0.34383,1.69063 2.33918,-3.04563 4.76869,-4.46445 5.82837,-3.40365 0.90454,0.90548 -0.16487,3.74955 -2.19734,5.84394 -1.23536,1.27295 -3.61314,2.53674 -4.8942,2.60123 -0.757,0.0382 -0.86836,0.1842 -1.55034,2.03366 -0.8352,2.26506 -1.19927,2.78128 -1.46766,2.08115 z m 4.41825,-5.29975 c 2.09115,-0.95021 5.20469,-4.75377 5.20469,-6.35819 0,-1.22266 -3.00933,0.45806 -4.62414,2.5826 -0.75172,0.989 -2.40473,3.82671 -2.40473,4.12817 0,0.31121 0.63227,0.189 1.82418,-0.35258 z m -37.06738,-0.059 c -0.95664,-2.46142 -1.84828,-6.02084 -1.74078,-6.94923 0.11317,-0.9768 1.13425,-1.00615 1.2317,-0.0355 0.15241,1.5184 0.66265,3.51808 0.89766,3.51808 0.13812,0 0.25097,-0.21646 0.25097,-0.48103 0,-0.73081 0.776,-1.68394 1.371,-1.68394 1.35703,0 2.05729,3.18178 1.18213,5.37128 -0.43665,1.09241 -1.49238,2.20609 -2.09132,2.20609 -0.18981,0 -0.68542,-0.87562 -1.10136,-1.94583 z m 2.29476,-0.23918 c 0.33828,-1.21176 0.25226,-3.64458 -0.14824,-4.19047 -0.37164,-0.50668 -0.39564,-0.49828 -0.67585,0.23651 -0.31616,0.82903 -0.38246,3.19698 -0.11715,4.18807 0.20506,0.7664 0.69605,0.64428 0.94124,-0.23411 z m 15.12542,0.0395 c -0.75588,-0.75663 -0.96546,-2.76328 -0.57654,-5.51951 0.18535,-1.31336 0.28906,-2.43585 0.23051,-2.49446 -0.0586,-0.0587 -0.55637,0.0317 -1.10628,0.20059 -1.08535,0.33344 -1.42712,0.20328 -1.1773,-0.44839 0.1016,-0.26506 0.50178,-0.41761 1.09544,-0.41761 1.02386,0 1.78503,-0.57288 1.78503,-1.3435 0,-0.2711 0.17355,-0.55961 0.38574,-0.64113 0.51484,-0.19776 1.01947,0.44767 0.79921,1.02222 -0.15041,0.39247 -0.0429,0.43678 0.73877,0.30452 1.67733,-0.28378 4.28106,-0.29492 4.35594,-0.0186 0.0414,0.15285 -0.86745,0.35478 -2.0894,0.46409 -3.44796,0.30839 -3.26905,0.18369 -3.61625,2.52059 -0.35737,2.40529 -0.39035,5.25462 -0.0667,5.76568 0.33741,0.53283 1.17818,-0.65091 1.93094,-2.71864 0.9725,-2.67133 1.49992,-2.83277 0.69711,-0.21335 -0.54319,1.77235 -1.00533,2.76148 -1.61202,3.45041 -0.65669,0.74571 -1.0948,0.76723 -1.77416,0.0873 z m -7.69427,-0.61232 c -0.50472,-0.7711 -1.08561,-4.34613 -0.85536,-5.26441 0.1119,-0.44629 0.32527,-0.64365 0.63231,-0.58478 0.37764,0.0724 0.50072,0.5365 0.66473,2.50623 0.11063,1.32955 0.31048,2.52667 0.44392,2.66025 0.27165,0.27194 0.70509,-0.92687 0.98148,-2.71469 0.0976,-0.6318 0.28866,-1.21744 0.42439,-1.30142 0.40654,-0.25151 0.24735,2.07215 -0.25129,3.66793 -0.53668,1.71757 -1.32875,2.1178 -2.04018,1.03089 z m -0.69831,-8.46396 c -0.26786,-0.32305 -0.27247,-0.50127 -0.0208,-0.80478 0.43942,-0.53002 1.14248,-0.21223 1.0414,0.47074 -0.10503,0.70942 -0.58038,0.86502 -1.02059,0.33404 z m -4.13018,-7.64207 c 0.33455,-0.0645 0.88198,-0.0645 1.21653,0 0.33455,0.0645 0.0608,0.11736 -0.60827,0.11736 -0.66909,0 -0.94281,-0.0529 -0.60826,-0.11736 z m 21.35693,0 c 0.33455,-0.0645 0.88199,-0.0645 1.21653,0 0.33455,0.0645 0.061,0.11736 -0.60825,0.11736 -0.6691,0 -0.94283,-0.0529 -0.60828,-0.11736 z"
       id="path7283" /></g></svg>
